<?xml version="1.0" standalone="no"?>
<!DOCTYPE svg PUBLIC "-//W3C//DTD SVG 20010904//EN"
 "http://www.w3.org/TR/2001/REC-SVG-20010904/DTD/svg10.dtd">
<svg version="1.0" xmlns="http://www.w3.org/2000/svg"
 width="700.000000pt" height="700.000000pt" viewBox="0 0 700.000000 700.000000"
 preserveAspectRatio="xMidYMid meet">
<metadata>
Created by potrace 1.14, written by Peter Selinger 2001-2017
</metadata>
<g transform="translate(0.000000,700.000000) scale(0.100000,-0.100000)"
fill="#000000" stroke="none">
<path d="M3435 6701 c-92 -24 -180 -103 -209 -188 -24 -69 -24 -707 0 -776 21
-61 91 -138 151 -168 67 -32 179 -32 246 0 60 30 130 107 151 168 24 69 24
707 0 776 -20 60 -91 139 -149 166 -50 24 -143 34 -190 22z"/>
<path d="M1350 5813 c-61 -22 -142 -104 -163 -167 -9 -27 -17 -77 -17 -111 0
-110 27 -148 292 -411 150 -149 249 -240 278 -254 30 -15 70 -25 118 -28 66
-4 78 -2 136 27 73 36 108 72 144 150 21 45 24 64 20 125 -3 46 -13 87 -28
116 -14 29 -105 128 -254 278 -267 269 -301 293 -415 291 -36 0 -86 -8 -111
-16z"/>
<path d="M5460 5804 c-45 -20 -101 -71 -296 -267 -221 -222 -243 -247 -264
-302 -17 -47 -21 -74 -17 -125 10 -154 117 -258 274 -268 124 -8 153 12 439
300 268 270 274 279 274 408 0 205 -221 342 -410 254z"/>
<path d="M3275 5234 c-594 -80 -1094 -442 -1350 -977 -347 -723 -162 -1583
450 -2095 469 -393 1101 -514 1680 -321 185 62 397 178 549 302 467 381 708
982 631 1574 -59 447 -271 838 -610 1121 -377 316 -872 461 -1350 396z m448
-590 c87 -17 226 -63 302 -101 135 -68 305 -209 400 -333 155 -202 238 -450
238 -710 0 -324 -121 -610 -355 -836 -91 -88 -131 -119 -233 -178 -167 -96
-368 -149 -570 -150 -239 0 -455 65 -660 199 -82 53 -261 235 -317 320 -130
200 -191 408 -191 645 0 238 63 450 192 645 53 81 182 219 261 280 169 129
387 214 615 239 64 6 233 -4 318 -20z"/>
<path d="M483 3773 c-57 -20 -136 -92 -164 -150 -32 -67 -32 -179 0 -246 30
-60 107 -130 168 -151 69 -24 707 -24 776 0 61 21 138 91 168 151 32 67 32
179 0 246 -30 60 -107 130 -168 151 -67 23 -716 22 -780 -1z"/>
<path d="M5733 3773 c-57 -20 -136 -92 -164 -150 -17 -37 -23 -65 -23 -123 0
-94 26 -152 95 -214 82 -74 95 -76 484 -76 389 0 402 2 484 76 69 62 95 120
95 214 0 94 -26 152 -95 214 -83 74 -94 76 -488 75 -280 0 -354 -3 -388 -16z"/>
<path d="M1760 2099 c-48 -19 -86 -52 -296 -263 -160 -159 -250 -256 -264
-286 -31 -61 -38 -161 -16 -228 22 -65 83 -134 148 -166 40 -20 67 -26 118
-26 129 0 138 6 408 274 288 286 308 315 300 439 -10 160 -116 266 -273 274
-54 2 -83 -2 -125 -18z"/>
<path d="M5063 2099 c-153 -60 -227 -252 -153 -399 14 -29 104 -128 254 -278
268 -270 300 -292 420 -292 166 0 285 120 286 286 0 120 -21 152 -292 420
-150 149 -249 240 -278 254 -65 33 -168 37 -237 9z"/>
<path d="M3435 1451 c-92 -24 -180 -103 -209 -188 -24 -69 -24 -707 0 -776 21
-61 91 -138 151 -168 67 -32 179 -32 246 0 60 30 130 107 151 168 24 69 24
707 0 776 -20 60 -91 139 -149 166 -50 24 -143 34 -190 22z"/>
</g>
</svg>
