<svg width="336" height="317" viewBox="0 0 336 317" fill="none" xmlns="http://www.w3.org/2000/svg">
<path d="M22.75 309.79C32.35 304.117 40.9233 297.177 48.47 288.97C55.4833 281.35 60.64 275.257 63.94 270.69C66.9267 266.55 75.51 254.05 89.69 233.19C92.6833 228.783 96.45 226.17 100.99 225.35C105.59 224.523 109.707 225.36 113.34 227.86C117.193 230.507 119.453 234.74 120.12 240.56C120.193 241.18 120.337 241.197 120.55 240.61C124.297 230.263 131.25 225.913 141.41 227.56C144.163 228.007 146.763 228.963 149.21 230.43C151.697 231.917 153.897 233.67 155.81 235.69C159.87 239.97 163.64 244.893 167.12 250.46C167.167 250.533 167.223 250.59 167.29 250.63C167.657 250.863 167.727 250.797 167.5 250.43C152.2 225.683 137.203 200.57 122.51 175.09C122.463 175.006 122.395 174.936 122.313 174.886C122.231 174.836 122.137 174.809 122.041 174.807C121.945 174.805 121.85 174.828 121.765 174.874C121.681 174.921 121.61 174.988 121.56 175.07C105.067 201.217 88.2167 227.133 71.01 252.82C62.3833 265.707 53.0667 277.37 43.06 287.81C36.44 294.723 28.8367 301.107 20.25 306.96C15.1567 310.6 9.65667 313.45 3.75 315.51C2.69 315.883 1.61 316.057 0.509999 316.03C0.156665 316.017 0.126669 315.92 0.420002 315.74C8.95334 310.52 16.9933 304.663 24.54 298.17C29.0933 294.243 33.8267 289.557 38.74 284.11C48 273.85 56.6467 263.03 64.68 251.65C65.22 250.877 65.0367 250.61 64.13 250.85C61.8767 251.43 59.5567 251.64 57.17 251.48C55.0967 251.34 52.86 250.837 50.46 249.97C39.6533 246.07 32.7333 238.313 29.7 226.7C27.6067 218.653 28.4567 210.837 32.25 203.25C33.6033 200.55 34.6833 198.527 35.49 197.18C35.5188 197.131 35.5357 197.076 35.5392 197.02C35.5427 196.963 35.5326 196.907 35.51 196.856C35.4874 196.804 35.4528 196.76 35.4092 196.726C35.3657 196.692 35.3145 196.669 35.26 196.66C17.9067 193.3 7.32 183.08 3.5 166C2.65334 162.207 2.50334 158.277 3.05001 154.21C3.59667 150.163 4.76 146.473 6.54 143.14C10.22 136.267 16.04 131.527 24 128.92C24.0957 128.889 24.1823 128.835 24.2525 128.763C24.3227 128.691 24.3743 128.603 24.4029 128.506C24.4314 128.41 24.436 128.308 24.4164 128.209C24.3967 128.111 24.3533 128.018 24.29 127.94C19.1767 121.567 16.2833 114.333 15.61 106.24C14.8367 96.9533 17.19 89.2067 22.67 83C26.4767 78.6867 31.0267 75.79 36.32 74.31C41.74 72.7967 47.3967 72.9467 53.29 74.76C53.3763 74.7859 53.4677 74.7906 53.5562 74.7737C53.6448 74.7567 53.7279 74.7187 53.7986 74.6627C53.8693 74.6068 53.9254 74.5346 53.9622 74.4523C53.999 74.37 54.0154 74.28 54.01 74.19C53.57 66.9033 54.8267 60.01 57.78 53.51C61.5267 45.29 67.1667 39.2767 74.7 35.47C79.8133 32.89 85.1833 31.6933 90.81 31.88C96.5233 32.0733 102.007 33.5833 107.26 36.41C107.338 36.4517 107.424 36.4752 107.512 36.4787C107.6 36.4821 107.689 36.4655 107.77 36.43C107.852 36.3945 107.925 36.341 107.983 36.2735C108.042 36.206 108.085 36.1262 108.11 36.04C111.983 21.9133 119.78 11.81 131.5 5.73C137.587 2.57 143.973 0.936671 150.66 0.830004C162.273 0.650004 172.46 4.96667 181.22 13.78C185 17.58 188.043 21.8967 190.35 26.73C190.375 26.7805 190.412 26.8244 190.458 26.8579C190.503 26.8914 190.556 26.9135 190.611 26.9223C190.666 26.9312 190.722 26.9265 190.774 26.9087C190.826 26.8909 190.873 26.8604 190.91 26.82C196.157 21.3267 199.457 18.0733 200.81 17.06C210.49 9.84667 220.887 7.57667 232 10.25C236.113 11.2367 240.157 13.1 244.13 15.84C247.79 18.36 250.973 21.38 253.68 24.9C259.853 32.9333 262.98 42.28 263.06 52.94C263.061 52.9968 263.076 53.0524 263.104 53.1024C263.131 53.1523 263.169 53.1951 263.216 53.2273C263.263 53.2595 263.317 53.2801 263.373 53.2876C263.429 53.295 263.486 53.289 263.54 53.27C275.433 49.03 286.233 50.2933 295.94 57.06C301.113 60.6667 304.823 65.42 307.07 71.32C309.123 76.7133 309.81 82.4633 309.13 88.57C308.357 95.59 305.773 102.193 301.38 108.38C301.342 108.435 301.317 108.498 301.308 108.565C301.299 108.631 301.307 108.698 301.329 108.76C301.352 108.822 301.39 108.878 301.438 108.921C301.487 108.965 301.546 108.995 301.61 109.01C310.977 111.27 317.3 117.037 320.58 126.31C322.853 132.737 322.71 139.107 320.15 145.42C318.103 150.48 314.973 154.873 310.76 158.6C310.657 158.692 310.593 158.819 310.581 158.956C310.57 159.092 310.613 159.226 310.7 159.33C313.807 163.103 315.997 167.123 317.27 171.39C318.563 175.717 318.833 180.16 318.08 184.72C316.913 191.767 313.43 197.733 307.63 202.62C304.57 205.2 301.073 207.26 297.14 208.8C297.007 208.852 296.898 208.951 296.833 209.078C296.769 209.205 296.753 209.352 296.79 209.49C300.443 223.51 297.663 235.66 288.45 245.94C285.903 248.787 283.077 251.313 279.97 253.52C279.858 253.601 279.78 253.72 279.753 253.856C279.725 253.991 279.749 254.132 279.82 254.25C287.233 266.397 295.57 277.873 304.83 288.68C313.69 299.013 323.827 307.833 335.24 315.14C336.053 315.66 335.98 315.863 335.02 315.75C326.04 314.683 317.033 314.127 308 314.08C218.913 313.673 129.83 313.647 40.75 314C36.91 314.013 27.6 314.4 12.82 315.16C12.5267 315.173 12.51 315.113 12.77 314.98L22.75 309.79ZM82.46 90.25C81.3533 90.0367 80.6033 89.4233 80.21 88.41C80.0809 88.0673 79.8865 87.7987 79.66 87.65C77.5533 86.25 75.9967 87.04 74.99 90.02C74.9644 90.0987 74.9564 90.1824 74.9668 90.264C74.9772 90.3457 75.0055 90.423 75.0496 90.4896C75.0936 90.5561 75.152 90.6099 75.2199 90.6465C75.2879 90.6831 75.3633 90.7015 75.44 90.7L82.46 90.5C83.1133 90.9333 83.8 91.1033 84.52 91.01C85.52 90.89 86.06 90.83 86.14 90.83C88.2467 90.87 90.5867 90.94 93.16 91.04C93.2568 91.0438 93.3532 91.0262 93.4426 90.9885C93.532 90.9508 93.6123 90.8939 93.6778 90.8217C93.7434 90.7494 93.7928 90.6636 93.8225 90.5701C93.8522 90.4766 93.8616 90.3776 93.85 90.28C93.0233 83.76 90.3433 78.8233 85.81 75.47C83.39 73.6833 80.8033 72.68 78.05 72.46C74.9833 72.22 72.1533 72.92 69.56 74.56C64.0733 78.0467 60.9267 83.2567 60.12 90.19C60.1118 90.2545 60.117 90.3201 60.1355 90.3827C60.1539 90.4453 60.1851 90.5036 60.2272 90.5541C60.2693 90.6046 60.3214 90.6463 60.3803 90.6765C60.4392 90.7067 60.5038 90.725 60.57 90.73C64.53 91.0767 68.4867 91.0767 72.44 90.73C72.5026 90.7242 72.5632 90.7053 72.6182 90.6745C72.6733 90.6437 72.7215 90.6018 72.7599 90.5512C72.7983 90.5006 72.8261 90.4424 72.8416 90.3803C72.8571 90.3182 72.86 90.2534 72.85 90.19C72.2833 86.53 73.4967 84.3733 76.49 83.72C78.35 83.3067 79.9333 83.6067 81.24 84.62C82.8667 85.88 83.2733 87.7567 82.46 90.25ZM126.87 90.74C126.934 90.7387 126.996 90.723 127.053 90.6941C127.11 90.6651 127.16 90.6235 127.2 90.5722C127.24 90.5209 127.269 90.461 127.284 90.3968C127.3 90.3325 127.302 90.2654 127.29 90.2C126.923 88.2267 127.257 86.6367 128.29 85.43C129.203 84.3767 130.537 83.83 132.29 83.79C135.923 83.7233 137.61 85.8567 137.35 90.19C137.346 90.2561 137.355 90.3223 137.376 90.3847C137.397 90.4471 137.43 90.5043 137.473 90.5529C137.516 90.6015 137.568 90.6405 137.626 90.6675C137.684 90.6945 137.746 90.7089 137.81 90.71L146.76 90.72C146.848 90.7216 146.936 90.7031 147.016 90.6658C147.097 90.6284 147.169 90.5732 147.227 90.5038C147.285 90.4343 147.327 90.3525 147.352 90.2638C147.377 90.1751 147.383 90.0817 147.37 89.99C146.17 82.4567 142.593 77.33 136.64 74.61C134 73.3967 131.33 72.9433 128.63 73.25C125.663 73.59 123.057 74.6933 120.81 76.56C116.677 80.0067 114.357 84.6367 113.85 90.45C113.844 90.5159 113.852 90.5823 113.874 90.6448C113.895 90.7073 113.929 90.7645 113.973 90.8126C114.018 90.8607 114.071 90.8988 114.131 90.9242C114.191 90.9496 114.255 90.9618 114.32 90.96L126.87 90.74ZM171.71 191.25L175 195.79C184.44 209.537 197.917 217.967 215.43 221.08C215.645 221.118 215.868 221.071 216.05 220.948C216.233 220.825 216.362 220.636 216.41 220.42C218.43 211.16 219.53 201.937 219.71 192.75C220.33 185.097 220.58 177.43 220.46 169.75L220.49 156.52C220.493 156.227 220.424 155.936 220.288 155.673C220.152 155.41 219.954 155.183 219.71 155.01C217.65 153.53 215.857 151.917 214.33 150.17C212.157 147.677 209.46 145.967 206.24 145.04C205.687 144.88 205.303 144.587 205.09 144.16C205.062 144.104 205.049 144.041 205.053 143.978C205.057 143.916 205.077 143.855 205.111 143.803C205.145 143.75 205.193 143.707 205.249 143.679C205.305 143.65 205.367 143.637 205.43 143.64L209.64 143.8C209.783 143.804 209.926 143.773 210.054 143.71C210.182 143.647 210.293 143.553 210.375 143.438C210.458 143.323 210.51 143.189 210.526 143.05C210.543 142.911 210.523 142.77 210.47 142.64L207.27 134.82C206.863 133.827 207.04 133.697 207.8 134.43L212.4 138.89C212.457 138.945 212.524 138.989 212.595 139.02C212.667 139.05 212.742 139.067 212.817 139.069C212.892 139.071 212.964 139.058 213.03 139.031C213.096 139.003 213.154 138.962 213.2 138.91C214.293 137.703 215.5 136.507 216.82 135.32C218.307 133.987 218.543 134.247 217.53 136.1C216.297 138.367 215.13 140.663 214.03 142.99C213.968 143.118 213.947 143.264 213.97 143.41C213.993 143.556 214.059 143.695 214.16 143.81L219.57 149.95C220.483 150.983 220.973 150.82 221.04 149.46C221.427 141.74 221.32 133.77 220.72 125.55C220.711 125.4 220.668 125.252 220.593 125.118C220.519 124.983 220.416 124.864 220.29 124.77C217.817 122.963 215.747 120.783 214.08 118.23C213.88 117.93 213.947 117.85 214.28 117.99L220.49 120.72C220.535 120.738 220.584 120.745 220.632 120.74C220.681 120.735 220.727 120.717 220.767 120.689C220.806 120.661 220.839 120.624 220.86 120.58C220.882 120.537 220.892 120.489 220.89 120.44L220 101.76C219.98 101.333 220.04 101.32 220.18 101.72L224.18 112.8C224.21 112.882 224.257 112.957 224.317 113.019C224.378 113.081 224.45 113.129 224.53 113.16C224.609 113.191 224.693 113.203 224.776 113.196C224.859 113.189 224.939 113.163 225.01 113.12L230.92 109.64C231.227 109.453 231.307 109.527 231.16 109.86C229.753 112.893 227.833 115.417 225.4 117.43C225.277 117.531 225.18 117.659 225.119 117.803C225.058 117.946 225.034 118.099 225.05 118.25L225.77 125.44C225.782 125.58 225.843 125.71 225.944 125.809C226.045 125.908 226.178 125.969 226.32 125.98C228.293 126.133 230.26 126.373 232.22 126.7C233.033 126.833 233.563 127.187 233.81 127.76C233.876 127.913 233.975 128.05 234.1 128.16C234.224 128.27 234.372 128.349 234.529 128.392C234.686 128.435 234.85 128.44 235.006 128.406C235.163 128.373 235.308 128.302 235.43 128.2L241.08 123.4C241.293 123.22 241.34 123.26 241.22 123.52C239.967 126.14 238.663 128.737 237.31 131.31C236.443 132.957 236.467 135.01 237.38 137.47C237.431 137.606 237.526 137.721 237.65 137.796C237.774 137.87 237.918 137.9 238.06 137.88C239.427 137.66 240.643 137.083 241.71 136.15C241.79 136.083 241.867 136.04 241.94 136.02C242.207 135.953 242.25 136.067 242.07 136.36C238.717 141.673 234.013 144.957 227.96 146.21C227.833 146.235 227.719 146.303 227.637 146.401C227.555 146.5 227.51 146.623 227.51 146.75L227.73 164.04C227.737 164.487 227.913 164.593 228.26 164.36L231.91 161.87C232.137 161.717 232.24 161.763 232.22 162.01C231.993 165.25 230.727 167.987 228.42 170.22C228.301 170.336 228.207 170.472 228.145 170.616C228.083 170.761 228.054 170.912 228.06 171.06L228.28 177.19C228.283 177.253 228.3 177.314 228.329 177.37C228.357 177.425 228.398 177.474 228.447 177.513C228.496 177.552 228.553 177.58 228.614 177.595C228.675 177.61 228.738 177.611 228.8 177.6C234.107 176.527 238.237 173.613 241.19 168.86C241.217 168.816 241.232 168.765 241.235 168.712C241.238 168.659 241.228 168.604 241.207 168.551C241.185 168.498 241.152 168.448 241.109 168.405C241.067 168.362 241.016 168.326 240.96 168.3L236.51 166.27C235.357 165.743 235.41 165.41 236.67 165.27L241.75 164.71H243C244.2 165.203 244.92 164.793 245.16 163.48C245.753 160.347 246.187 157.323 246.46 154.41C246.54 153.577 246.707 153.56 246.96 154.36L248.57 159.42C248.592 159.494 248.629 159.562 248.68 159.619C248.731 159.677 248.793 159.722 248.862 159.752C248.931 159.782 249.006 159.795 249.08 159.791C249.154 159.788 249.226 159.767 249.29 159.73L254.15 156.85C254.717 156.51 254.82 156.61 254.46 157.15C251.207 162.043 248.033 166.973 244.94 171.94C241.94 176.753 238.113 180.19 233.46 182.25C232.607 182.503 231.763 182.783 230.93 183.09C230.897 183.103 230.6 183.157 230.04 183.25C229.593 183.323 229.427 183.657 229.54 184.25C229.9 196.897 231.757 209.317 235.11 221.51C235.139 221.612 235.215 221.699 235.324 221.758C235.434 221.816 235.57 221.842 235.71 221.83L238.8 221.54C240.327 221.4 241.343 220.88 241.85 219.98L249.91 205.78C249.935 205.735 249.971 205.698 250.015 205.672C250.059 205.645 250.108 205.63 250.159 205.628C250.211 205.626 250.261 205.637 250.307 205.66C250.352 205.683 250.391 205.718 250.42 205.76L258.65 218.82C258.762 218.999 258.939 219.127 259.146 219.181C259.353 219.235 259.576 219.209 259.77 219.11C265.03 216.51 270.013 213.297 274.72 209.47C278.433 206.457 281.527 202.897 284 198.79C288.973 192.097 292.877 184.833 295.71 177C299.917 165.727 300.803 154.17 298.37 142.33C295.01 126.023 286.87 112.68 273.95 102.3C268.19 97.6733 261.98 93.9067 255.32 91C249.087 88.28 242.673 86.59 236.08 85.93C222.573 84.5833 209.89 87.07 198.03 93.39C192.717 96.23 187.677 99.89 182.91 104.37C178.277 108.723 174.203 113.497 170.69 118.69C163.137 129.837 159.653 142.273 160.24 156C160.787 168.867 164.61 180.617 171.71 191.25ZM133.05 87.41C130.803 86.57 129.697 87.52 129.73 90.26C129.733 90.3909 129.789 90.5156 129.886 90.6072C129.983 90.6989 130.114 90.7501 130.25 90.75C131.497 90.7633 132.743 90.8167 133.99 90.91C136.023 91.07 136.293 90.3 134.8 88.6C134.313 88.06 133.73 87.6633 133.05 87.41ZM88.72 113.52C93.48 117.573 98.98 119.083 105.22 118.05C113.38 116.703 119.027 112.31 122.16 104.87C122.373 104.363 122.477 103.89 122.47 103.45C122.463 102.123 121.95 101.827 120.93 102.56C120.557 102.82 120.25 103.237 120.01 103.81C117.67 109.277 113.66 112.99 107.98 114.95C103.587 116.463 99.2567 116.323 94.99 114.53C89.8767 112.39 86.2567 108.767 84.13 103.66C83.7233 102.687 83.03 102.28 82.05 102.44C81.9861 102.451 81.9257 102.477 81.8728 102.515C81.8199 102.553 81.7758 102.603 81.7435 102.661C81.7112 102.719 81.6915 102.784 81.6857 102.851C81.6799 102.918 81.6882 102.986 81.71 103.05C83.0567 107.19 85.3933 110.68 88.72 113.52ZM230.93 130.67C229.923 130.37 228.7 130.243 227.26 130.29C227.118 130.295 226.985 130.357 226.887 130.462C226.79 130.566 226.737 130.706 226.74 130.85L226.93 140.07C226.931 140.134 226.945 140.198 226.972 140.256C226.999 140.315 227.037 140.368 227.085 140.411C227.133 140.454 227.189 140.487 227.25 140.507C227.311 140.528 227.376 140.535 227.44 140.53C229.633 140.377 231.73 139.837 233.73 138.91C233.875 138.842 234.002 138.742 234.1 138.619C234.197 138.495 234.262 138.352 234.29 138.2C234.643 136.287 234.4 134.533 233.56 132.94C232.947 131.773 232.07 131.017 230.93 130.67ZM292.75 284.54C293.457 285.633 294.29 286.623 295.25 287.51C296.71 288.863 296.927 288.88 295.9 287.56C295.067 286.487 294.183 285.453 293.25 284.46C284.61 273.287 276.753 261.6 269.68 249.4C264.28 240.093 261.557 235.4 261.51 235.32C257.843 229.127 254.213 222.857 250.62 216.51C250.594 216.464 250.556 216.426 250.51 216.4C250.465 216.374 250.413 216.36 250.36 216.36C250.307 216.36 250.255 216.374 250.21 216.4C250.164 216.426 250.126 216.464 250.1 216.51C242.06 230.003 234.157 243.553 226.39 257.16C223.983 261.367 221.433 265.54 218.74 269.68C218.669 269.788 218.573 269.878 218.46 269.94C218.347 270.003 218.22 270.036 218.09 270.038C217.961 270.04 217.833 270.011 217.718 269.952C217.603 269.893 217.504 269.806 217.43 269.7C209.823 258.653 202.68 247.15 196 235.19C195.969 235.134 195.926 235.085 195.875 235.048C195.823 235.01 195.765 234.984 195.704 234.971C195.642 234.959 195.58 234.96 195.52 234.975C195.461 234.991 195.406 235.02 195.36 235.06C194.48 235.84 193.423 237.217 192.19 239.19C184.523 251.43 174.323 266.013 161.59 282.94C161.237 283.413 161.297 283.533 161.77 283.3C161.91 283.233 162.05 283.113 162.19 282.94C164.837 279.593 168.303 275.643 172.59 271.09C175.277 268.237 178.163 265.957 181.25 264.25C186.857 261.143 191.897 261.353 196.37 264.88C197.603 265.853 198.953 267.477 200.42 269.75C201.573 271.537 202.727 273.323 203.88 275.11C204.827 276.577 205.81 277.607 206.83 278.2C208.143 278.967 209.55 279.427 211.05 279.58C212.863 279.76 214.757 279.367 216.73 278.4C218.743 277.407 220.313 276.17 221.44 274.69C223.807 271.577 226.267 268.537 228.82 265.57C231.347 262.65 234.377 260.417 237.91 258.87C242.11 257.03 246.107 256.9 249.9 258.48C252.52 259.573 254.347 261.193 255.38 263.34C256.533 265.72 256.593 268.383 255.56 271.33C255.093 272.643 255.347 272.8 256.32 271.8C259.26 268.773 262.987 267.297 267.5 267.37C271.92 267.443 275.733 268.757 278.94 271.31C283.44 274.897 288.043 279.307 292.75 284.54Z" fill="#1E1F1B"/>
</svg>
